<svg width="22" height="22" viewBox="0 0 22 22" fill="none" xmlns="http://www.w3.org/2000/svg">
<path fill-rule="evenodd" clip-rule="evenodd" d="M16.4402 5.48008C16.1473 5.18718 15.6725 5.18718 15.3796 5.48008L10.9601 9.89949L6.54073 5.48008C6.24783 5.18718 5.77296 5.18718 5.48007 5.48008C5.18717 5.77297 5.18717 6.24784 5.48007 6.54074L9.89948 10.9602L5.48007 15.3796C5.18717 15.6725 5.18717 16.1473 5.48007 16.4402C5.77296 16.7331 6.24783 16.7331 6.54073 16.4402L10.9601 12.0208L15.3796 16.4402C15.6725 16.7331 16.1473 16.7331 16.4402 16.4402C16.7331 16.1473 16.7331 15.6725 16.4402 15.3796L12.0208 10.9602L16.4402 6.54074C16.7331 6.24784 16.7331 5.77297 16.4402 5.48008Z" fill="#646668"/>
</svg>
