<svg width="24" height="24" viewBox="0 0 24 24" fill="none" xmlns="http://www.w3.org/2000/svg">
<path fill-rule="evenodd" clip-rule="evenodd" d="M10 6.5C10 5.94772 10.4477 5.5 11 5.5H13C13.5523 5.5 14 5.94772 14 6.5V7H18H18.25C18.6642 7 19 7.33579 19 7.75C19 8.16421 18.6642 8.5 18.25 8.5H17.7692L16.2609 18.3041C16.1108 19.2798 15.2713 20 14.2842 20H9.71584C8.7287 20 7.8892 19.2798 7.73909 18.3041L6.23077 8.5H5.75C5.33579 8.5 5 8.16421 5 7.75C5 7.33579 5.33579 7 5.75 7H6H10V6.5ZM7.74842 8.5L9.22165 18.076C9.25918 18.3199 9.46905 18.5 9.71584 18.5H14.2842C14.5309 18.5 14.7408 18.3199 14.7783 18.076L16.2516 8.5H7.74842Z" fill="#222527"/>
</svg>
