<svg width="24" height="24" viewBox="0 0 24 24" fill="none" xmlns="http://www.w3.org/2000/svg">
<path fill-rule="evenodd" clip-rule="evenodd" d="M13 6C10.7909 6 9 7.79086 9 10C9 10.2753 9.02766 10.5431 9.08003 10.8011L9.3234 12H6.5C5.11929 12 4 13.1193 4 14.5C4 15.8807 5.11929 17 6.5 17H17.5C18.8807 17 20 15.8807 20 14.5C20 13.2155 19.0304 12.156 17.7837 12.0158L16.6932 11.8932L16.9163 10.8187C16.9711 10.5553 17 10.2816 17 10C17 7.79086 15.2091 6 13 6ZM7 10C7 6.68629 9.68629 4 13 4C16.3137 4 19 6.68629 19 10C19 10.0852 18.9982 10.17 18.9947 10.2544C20.7455 10.8708 22 12.5384 22 14.5C22 16.9853 19.9853 19 17.5 19H6.5C4.01472 19 2 16.9853 2 14.5C2 12.0147 4.01472 10 6.5 10H7Z" fill="#57CF1F"/>
</svg>
