<svg width="24" height="24" viewBox="0 0 24 24" fill="none" xmlns="http://www.w3.org/2000/svg">
<path fill-rule="evenodd" clip-rule="evenodd" d="M9.53553 8.46428C9.14501 8.07376 8.51184 8.07376 8.12132 8.46428C7.73079 8.8548 7.73079 9.48797 8.12132 9.87849L9.24264 10.9998H5C4.44772 10.9998 4 11.4475 4 11.9998C4 12.5521 4.44772 12.9998 5 12.9998H9.24264L8.12132 14.1211C7.73079 14.5117 7.73079 15.1448 8.12132 15.5353C8.51184 15.9259 9.14501 15.9259 9.53553 15.5353L12.364 12.7069C12.7545 12.3164 12.7545 11.6832 12.364 11.2927L9.53553 8.46428Z" fill="#7953E4"/>
<path d="M11 5.5V4C11 3.44772 11.4477 3 12 3H18C18.5523 3 19 3.44772 19 4V20C19 20.5523 18.5523 21 18 21H12C11.4477 21 11 20.5523 11 20V18.5" stroke="#7953E4" stroke-width="2" stroke-linecap="round"/>
</svg>
