<svg width="18" height="19" viewBox="0 0 18 19" fill="none" xmlns="http://www.w3.org/2000/svg">
<path fill-rule="evenodd" clip-rule="evenodd" d="M2 7C2 3.13401 5.13401 0 9 0C12.866 0 16 3.13401 16 7V13H17C17.5523 13 18 13.4477 18 14C18 14.5523 17.5523 15 17 15H1C0.447716 15 0 14.5523 0 14C0 13.4477 0.447715 13 1 13H2V7ZM4 13H14V7C14 4.23858 11.7614 2 9 2C6.23858 2 4 4.23858 4 7V13ZM8 16C8 16.5523 8.44772 17 9 17C9.55228 17 10 16.5523 10 16H12C12 17.6569 10.6569 19 9 19C7.34315 19 6 17.6569 6 16H8Z" fill="#7953E4"/>
</svg>
