<svg width="32" height="32" viewBox="0 0 32 32" fill="none" xmlns="http://www.w3.org/2000/svg">
<rect x="20" width="12" height="12" rx="2" fill="#F06E52"/>
<path d="M27.5746 4.896C27.5746 5.088 27.5346 5.27733 27.4546 5.464C27.3746 5.64533 27.2706 5.824 27.1426 6C27.0199 6.17067 26.8786 6.33867 26.7186 6.504C26.5586 6.664 26.3986 6.82133 26.2386 6.976C26.1532 7.056 26.0572 7.152 25.9506 7.264C25.8439 7.376 25.7426 7.488 25.6466 7.6C25.5506 7.712 25.4679 7.82133 25.3986 7.928C25.3292 8.02933 25.2919 8.11467 25.2866 8.184H27.7506V9H24.2226C24.2172 8.95733 24.2146 8.90667 24.2146 8.848C24.2146 8.784 24.2146 8.736 24.2146 8.704C24.2146 8.448 24.2546 8.21333 24.3346 8C24.4199 7.78133 24.5292 7.57867 24.6626 7.392C24.7959 7.20533 24.9452 7.02933 25.1106 6.864C25.2759 6.69867 25.4412 6.536 25.6066 6.376C25.7346 6.25333 25.8572 6.13333 25.9746 6.016C26.0919 5.89867 26.1932 5.784 26.2786 5.672C26.3692 5.55467 26.4412 5.43733 26.4946 5.32C26.5479 5.19733 26.5746 5.072 26.5746 4.944C26.5746 4.66667 26.4946 4.46933 26.3346 4.352C26.1746 4.23467 25.9799 4.176 25.7506 4.176C25.6012 4.176 25.4626 4.19733 25.3346 4.24C25.2066 4.28267 25.0919 4.33333 24.9906 4.392C24.8946 4.45067 24.8092 4.512 24.7346 4.576C24.6599 4.63467 24.6039 4.68267 24.5666 4.72L24.0866 4.04C24.3106 3.82667 24.5719 3.656 24.8706 3.528C25.1746 3.39467 25.4999 3.328 25.8466 3.328C26.4386 3.328 26.8732 3.46933 27.1506 3.752C27.4332 4.02933 27.5746 4.41067 27.5746 4.896Z" fill="white"/>
<rect x="7" y="20" width="18" height="2" rx="1" fill="#7953E4"/>
<path fill-rule="evenodd" clip-rule="evenodd" d="M18 7.28988C17.3663 7.10128 16.695 7 16 7C12.134 7 9 10.134 9 14V21H11V14C11 11.2386 13.2386 9 16 9C16.7111 9 17.3875 9.14845 18 9.41604V7.28988ZM21 14V21H23V14H21Z" fill="#7953E4"/>
<path d="M14 23V23C14 24.1046 14.8954 25 16 25V25C17.1046 25 18 24.1046 18 23V23" stroke="#7953E4" stroke-width="2"/>
</svg>
