<svg width="14" height="18" viewBox="0 0 14 18" fill="none" xmlns="http://www.w3.org/2000/svg">
<path fill-rule="evenodd" clip-rule="evenodd" d="M12 16L12 4.82843L9.17157 2L2 2L2 16H12ZM2 0C0.895431 0 0 0.89543 0 2V16C0 17.1046 0.89543 18 2 18H12C13.1046 18 14 17.1046 14 16V4.82843C14 4.29799 13.7893 3.78929 13.4142 3.41421L10.5858 0.585786C10.2107 0.210714 9.70201 0 9.17157 0H2ZM4 9C4 8.44772 4.44772 8 5 8H9C9.55228 8 10 8.44772 10 9C10 9.55228 9.55228 10 9 10H5C4.44772 10 4 9.55228 4 9ZM5 11C4.44772 11 4 11.4477 4 12C4 12.5523 4.44772 13 5 13H9C9.55228 13 10 12.5523 10 12C10 11.4477 9.55228 11 9 11H5Z" fill="#57CF1F"/>
</svg>
