<svg width="24" height="24" viewBox="0 0 24 24" fill="none" xmlns="http://www.w3.org/2000/svg">
<path fill-rule="evenodd" clip-rule="evenodd" d="M12 18.5C15.5899 18.5 18.5 15.5899 18.5 12C18.5 8.41015 15.5899 5.5 12 5.5C8.41015 5.5 5.5 8.41015 5.5 12C5.5 15.5899 8.41015 18.5 12 18.5ZM12 20C16.4183 20 20 16.4183 20 12C20 7.58172 16.4183 4 12 4C7.58172 4 4 7.58172 4 12C4 16.4183 7.58172 20 12 20ZM9.5 9.75C9.5 9.33579 9.83579 9 10.25 9C10.6642 9 11 9.33579 11 9.75V14.25C11 14.6642 10.6642 15 10.25 15C9.83579 15 9.5 14.6642 9.5 14.25V9.75ZM13.75 9C13.3358 9 13 9.33579 13 9.75V14.25C13 14.6642 13.3358 15 13.75 15C14.1642 15 14.5 14.6642 14.5 14.25V9.75C14.5 9.33579 14.1642 9 13.75 9Z" fill="#222527"/>
</svg>
