<svg width="24" height="24" viewBox="0 0 24 24" fill="none" xmlns="http://www.w3.org/2000/svg">
<path fill-rule="evenodd" clip-rule="evenodd" d="M11.3484 7.65166C11.6412 7.94456 12.1161 7.94456 12.409 7.65166C12.7019 7.35877 12.7019 6.8839 12.409 6.591L11.5818 5.76376C11.7199 5.75464 11.8594 5.75001 12 5.75001C15.4518 5.75001 18.25 8.54823 18.25 12C18.25 15.4518 15.4518 18.25 12 18.25C8.54822 18.25 5.75 15.4518 5.75 12C5.75 10.4695 6.2992 9.06913 7.21214 7.98244C7.47857 7.66529 7.43746 7.1922 7.12031 6.92576C6.80316 6.65933 6.33007 6.70044 6.06364 7.01758C4.93215 8.36443 4.25 10.1035 4.25 12C4.25 16.2802 7.71979 19.75 12 19.75C16.2802 19.75 19.75 16.2802 19.75 12C19.75 7.71981 16.2802 4.25001 12 4.25001C11.8508 4.25001 11.7026 4.25424 11.5555 4.26257L12.409 3.40902C12.7019 3.11613 12.7019 2.64126 12.409 2.34836C12.1161 2.05547 11.6412 2.05547 11.3484 2.34836L9.22703 4.46968C8.93414 4.76258 8.93414 5.23745 9.22703 5.53034L11.3484 7.65166Z" fill="#222527"/>
</svg>
