<svg width="126" height="120" viewBox="0 0 126 120" fill="none" xmlns="http://www.w3.org/2000/svg">
<path d="M55.5772 3.74513C59.2506 -1.24837 66.7494 -1.24838 70.4228 3.74513L87.5473 27.0237C88.6823 28.5665 90.2752 29.7169 92.1021 30.313L119.668 39.3073C125.581 41.2366 127.898 48.3252 124.256 53.3407L107.273 76.722C106.148 78.2716 105.539 80.1329 105.533 82.044L105.446 110.881C105.427 117.067 99.3601 121.448 93.4353 119.555L65.815 110.726C63.9845 110.141 62.0155 110.141 60.185 110.726L32.5647 119.555C26.6399 121.448 20.5733 117.067 20.5544 110.881L20.4666 82.044C20.4608 80.1329 19.8523 78.2716 18.7268 76.722L1.74441 53.3407C-1.89848 48.3252 0.418759 41.2366 6.33194 39.3073L33.8979 30.313C35.7248 29.7169 37.3178 28.5665 38.4527 27.0237L55.5772 3.74513Z" fill="#D3D3D4"/>
</svg>
