<svg width="24" height="24" viewBox="0 0 24 24" fill="none" xmlns="http://www.w3.org/2000/svg">
<path fill-rule="evenodd" clip-rule="evenodd" d="M9.07036 6.5H14.9296C15.0968 6.5 15.2529 6.58355 15.3456 6.72265L16.1972 8H7.80277L8.65434 6.72265C8.74707 6.58355 8.90318 6.5 9.07036 6.5ZM5.6511 8.52335L7.40626 5.8906C7.77719 5.3342 8.40165 5 9.07036 5H14.9296C15.5983 5 16.2228 5.3342 16.5937 5.8906L18.3489 8.52331C18.749 8.88902 19 9.4152 19 10V18C19 19.1046 18.1046 20 17 20H7C5.89543 20 5 19.1046 5 18V10C5 9.41522 5.25098 8.88905 5.6511 8.52335ZM7 9.5C6.72386 9.5 6.5 9.72386 6.5 10V18C6.5 18.2761 6.72386 18.5 7 18.5H17C17.2761 18.5 17.5 18.2761 17.5 18V10C17.5 9.72386 17.2761 9.5 17 9.5H7ZM13.9445 13.8839C14.2374 14.1768 14.2374 14.6516 13.9445 14.9445L12.5303 16.3587C12.2374 16.6516 11.7626 16.6516 11.4697 16.3587L10.0555 14.9445C9.76256 14.6516 9.76256 14.1768 10.0555 13.8839C10.3483 13.591 10.8232 13.591 11.1161 13.8839L11.3 14.0678V11.75C11.3 11.3358 11.6358 11 12.05 11C12.4642 11 12.8 11.3358 12.8 11.75V13.9678L12.8839 13.8839C13.1768 13.591 13.6517 13.591 13.9445 13.8839Z" fill="#222527"/>
</svg>
